<?xml version="1.0" ?><svg id="Icons" viewBox="0 0 24 24" xmlns="http://www.w3.org/2000/svg" xmlns:xlink="http://www.w3.org/1999/xlink"><defs><style>.cls-1{fill:url(#linear-gradient);}.cls-2{fill:url(#linear-gradient-2);}</style><linearGradient gradientUnits="userSpaceOnUse" id="linear-gradient" x1="12" x2="12" y1="7.085" y2="23.006"><stop offset="0" stop-color="#fff650"/><stop offset="1" stop-color="#ffab17"/></linearGradient><linearGradient gradientUnits="userSpaceOnUse" id="linear-gradient-2" x1="12" x2="12" y1="0.064" y2="10.828"><stop offset="0" stop-color="#ffaa39"/><stop offset="1" stop-color="#ff811a"/></linearGradient></defs><path class="cls-1" d="M18.6,23H5.4a3,3,0,0,1-2.976-3.372l1.25-10A3,3,0,0,1,6.648,7h10.7a3,3,0,0,1,2.976,2.628l1.25,10A3,3,0,0,1,18.6,23Z"/><path class="cls-2" d="M16,11a1,1,0,0,1-1-1V5A3,3,0,0,0,9,5v5a1,1,0,0,1-2,0V5A5,5,0,0,1,17,5v5A1,1,0,0,1,16,11Z"/></svg>